<mxfile host="app.diagrams.net" agent="Mozilla/5.0 (Windows NT 10.0; Win64; x64) AppleWebKit/537.36 (KHTML, like Gecko) Chrome/131.0.0.0 Safari/537.36" version="25.0.3">
  <diagram name="Sayfa -1" id="I3E2D-fKD2uTysnvvCk9">
    <mxGraphModel dx="1834" dy="1146" grid="0" gridSize="10" guides="1" tooltips="1" connect="1" arrows="1" fold="1" page="0" pageScale="1" pageWidth="827" pageHeight="1169" math="0" shadow="0">
      <root>
        <mxCell id="0" />
        <mxCell id="1" parent="0" />
        <mxCell id="FyE42bV6pMRHhxCbuQlU-3" value="" style="edgeStyle=none;curved=1;rounded=0;orthogonalLoop=1;jettySize=auto;html=1;fontSize=12;startSize=8;endSize=8;" parent="1" source="EjiDBl4ryGXT1y-goV6G-1" target="FyE42bV6pMRHhxCbuQlU-2" edge="1">
          <mxGeometry relative="1" as="geometry" />
        </mxCell>
        <mxCell id="EjiDBl4ryGXT1y-goV6G-1" value="Müşteri&amp;nbsp;" style="ellipse;whiteSpace=wrap;html=1;" parent="1" vertex="1">
          <mxGeometry x="175" y="-87" width="80" height="80" as="geometry" />
        </mxCell>
        <mxCell id="FyE42bV6pMRHhxCbuQlU-1" value="Tedarikci" style="ellipse;whiteSpace=wrap;html=1;" parent="1" vertex="1">
          <mxGeometry x="289" y="-87" width="80" height="80" as="geometry" />
        </mxCell>
        <mxCell id="FyE42bV6pMRHhxCbuQlU-5" value="" style="edgeStyle=none;curved=1;rounded=0;orthogonalLoop=1;jettySize=auto;html=1;fontSize=12;startSize=8;endSize=8;" parent="1" source="FyE42bV6pMRHhxCbuQlU-2" target="FyE42bV6pMRHhxCbuQlU-4" edge="1">
          <mxGeometry relative="1" as="geometry" />
        </mxCell>
        <mxCell id="RrLERUCqL4qP3EQ1UaGa-2" value="" style="edgeStyle=none;curved=1;rounded=0;orthogonalLoop=1;jettySize=auto;html=1;fontSize=12;startSize=8;endSize=8;" parent="1" source="FyE42bV6pMRHhxCbuQlU-2" target="RrLERUCqL4qP3EQ1UaGa-1" edge="1">
          <mxGeometry relative="1" as="geometry" />
        </mxCell>
        <mxCell id="FyE42bV6pMRHhxCbuQlU-2" value="Satin alinacak maddeler yazilacak" style="whiteSpace=wrap;html=1;" parent="1" vertex="1">
          <mxGeometry x="115" y="18" width="120" height="60" as="geometry" />
        </mxCell>
        <mxCell id="RrLERUCqL4qP3EQ1UaGa-4" value="" style="edgeStyle=none;curved=1;rounded=0;orthogonalLoop=1;jettySize=auto;html=1;fontSize=12;startSize=8;endSize=8;" parent="1" source="FyE42bV6pMRHhxCbuQlU-4" target="RrLERUCqL4qP3EQ1UaGa-3" edge="1">
          <mxGeometry relative="1" as="geometry" />
        </mxCell>
        <mxCell id="RrLERUCqL4qP3EQ1UaGa-5" value="" style="edgeStyle=none;curved=1;rounded=0;orthogonalLoop=1;jettySize=auto;html=1;fontSize=12;startSize=8;endSize=8;" parent="1" source="FyE42bV6pMRHhxCbuQlU-4" target="RrLERUCqL4qP3EQ1UaGa-3" edge="1">
          <mxGeometry relative="1" as="geometry" />
        </mxCell>
        <mxCell id="RrLERUCqL4qP3EQ1UaGa-6" value="" style="edgeStyle=none;curved=1;rounded=0;orthogonalLoop=1;jettySize=auto;html=1;fontSize=12;startSize=8;endSize=8;" parent="1" source="FyE42bV6pMRHhxCbuQlU-4" target="RrLERUCqL4qP3EQ1UaGa-3" edge="1">
          <mxGeometry relative="1" as="geometry" />
        </mxCell>
        <mxCell id="RrLERUCqL4qP3EQ1UaGa-7" value="" style="edgeStyle=none;curved=1;rounded=0;orthogonalLoop=1;jettySize=auto;html=1;fontSize=12;startSize=8;endSize=8;" parent="1" source="FyE42bV6pMRHhxCbuQlU-4" target="RrLERUCqL4qP3EQ1UaGa-3" edge="1">
          <mxGeometry relative="1" as="geometry" />
        </mxCell>
        <mxCell id="RrLERUCqL4qP3EQ1UaGa-10" value="" style="edgeStyle=none;curved=1;rounded=0;orthogonalLoop=1;jettySize=auto;html=1;fontSize=12;startSize=8;endSize=8;" parent="1" source="FyE42bV6pMRHhxCbuQlU-4" target="RrLERUCqL4qP3EQ1UaGa-3" edge="1">
          <mxGeometry relative="1" as="geometry" />
        </mxCell>
        <mxCell id="RrLERUCqL4qP3EQ1UaGa-12" style="edgeStyle=none;curved=1;rounded=0;orthogonalLoop=1;jettySize=auto;html=1;entryX=0.5;entryY=0;entryDx=0;entryDy=0;fontSize=12;startSize=8;endSize=8;" parent="1" target="RrLERUCqL4qP3EQ1UaGa-11" edge="1">
          <mxGeometry relative="1" as="geometry">
            <mxPoint x="203.2439024390244" y="194" as="sourcePoint" />
          </mxGeometry>
        </mxCell>
        <mxCell id="FyE42bV6pMRHhxCbuQlU-4" value="Maddeler listelenecek listelenen maddelerin durum / personel / firma bilgileri girilecek" style="whiteSpace=wrap;html=1;" parent="1" vertex="1">
          <mxGeometry x="115" y="134" width="120" height="60" as="geometry" />
        </mxCell>
        <mxCell id="RrLERUCqL4qP3EQ1UaGa-1" value="1- 200 adet yangın tupu&lt;div&gt;2- 100 adet is ayakkabisi&lt;/div&gt;&lt;div&gt;3- 30 adet yelek&lt;/div&gt;&lt;div&gt;4- 100 adet muhendis yelegi&lt;/div&gt;&lt;div&gt;5- 30 adet baret&lt;br&gt;&lt;div&gt;&lt;br&gt;&lt;/div&gt;&lt;/div&gt;" style="ellipse;shape=cloud;whiteSpace=wrap;html=1;" parent="1" vertex="1">
          <mxGeometry x="-155" y="-27" width="228" height="175" as="geometry" />
        </mxCell>
        <mxCell id="RrLERUCqL4qP3EQ1UaGa-14" value="" style="edgeStyle=none;curved=1;rounded=0;orthogonalLoop=1;jettySize=auto;html=1;fontSize=12;startSize=8;endSize=8;" parent="1" source="RrLERUCqL4qP3EQ1UaGa-3" target="RrLERUCqL4qP3EQ1UaGa-13" edge="1">
          <mxGeometry relative="1" as="geometry" />
        </mxCell>
        <mxCell id="RrLERUCqL4qP3EQ1UaGa-3" value="&lt;b&gt;[TEKLİF AL]&lt;/b&gt;&lt;br&gt;Urunle ilgili teklif alinacak" style="whiteSpace=wrap;html=1;" parent="1" vertex="1">
          <mxGeometry x="17" y="246" width="120" height="60" as="geometry" />
        </mxCell>
        <mxCell id="5AZsvfU4Qy47yrpIjcS5-2" value="" style="edgeStyle=orthogonalEdgeStyle;rounded=0;orthogonalLoop=1;jettySize=auto;html=1;" edge="1" parent="1" source="RrLERUCqL4qP3EQ1UaGa-11" target="5AZsvfU4Qy47yrpIjcS5-1">
          <mxGeometry relative="1" as="geometry" />
        </mxCell>
        <mxCell id="RrLERUCqL4qP3EQ1UaGa-11" value="&lt;b&gt;[SİPARİŞ VER]&lt;/b&gt;&lt;br&gt;Urun direkt siparis edilecek" style="whiteSpace=wrap;html=1;" parent="1" vertex="1">
          <mxGeometry x="175" y="246" width="120" height="60" as="geometry" />
        </mxCell>
        <mxCell id="RrLERUCqL4qP3EQ1UaGa-13" value="Teklifi alacak Personel secilecek." style="whiteSpace=wrap;html=1;" parent="1" vertex="1">
          <mxGeometry x="17" y="370" width="120" height="60" as="geometry" />
        </mxCell>
        <mxCell id="5AZsvfU4Qy47yrpIjcS5-4" value="" style="edgeStyle=orthogonalEdgeStyle;rounded=0;orthogonalLoop=1;jettySize=auto;html=1;" edge="1" parent="1" source="5AZsvfU4Qy47yrpIjcS5-1" target="5AZsvfU4Qy47yrpIjcS5-3">
          <mxGeometry relative="1" as="geometry" />
        </mxCell>
        <mxCell id="5AZsvfU4Qy47yrpIjcS5-1" value="Sipariş verilecek adet ve bir yada birden fazla firma seçilecek" style="whiteSpace=wrap;html=1;" vertex="1" parent="1">
          <mxGeometry x="175" y="372" width="120" height="60" as="geometry" />
        </mxCell>
        <mxCell id="5AZsvfU4Qy47yrpIjcS5-3" value="Bir sonraki adımda işi takip edecek personel seçilecek." style="whiteSpace=wrap;html=1;" vertex="1" parent="1">
          <mxGeometry x="175" y="491" width="120" height="60" as="geometry" />
        </mxCell>
        <mxCell id="5AZsvfU4Qy47yrpIjcS5-26" value="" style="line;strokeWidth=4;html=1;perimeter=backbonePerimeter;points=[];outlineConnect=0;" vertex="1" parent="1">
          <mxGeometry x="-360" y="569" width="1168" height="10" as="geometry" />
        </mxCell>
        <mxCell id="5AZsvfU4Qy47yrpIjcS5-27" value="&lt;h2&gt;&lt;b&gt;&lt;font style=&quot;font-size: 21px; line-height: 220%;&quot;&gt;SİPARİŞ AŞAMASI&lt;/font&gt;&lt;/b&gt;&lt;/h2&gt;" style="shape=rect;dashed=0;shadow=0;html=1;whiteSpace=wrap;direction=south;horizontal=0;fillColor=#fff2cc;strokeColor=#d6b656;" vertex="1" parent="1">
          <mxGeometry x="-333" y="82" width="52" height="350" as="geometry" />
        </mxCell>
      </root>
    </mxGraphModel>
  </diagram>
</mxfile>
